HIERARCHY
ROOT Hips
{
	OFFSET 0.000000 0.000000 0.000000
	CHANNELS 6 Xposition Yposition Zposition Zrotation Yrotation Xrotation 
	JOINT LeftUpLeg_virtual
	{
		OFFSET 0.000000 0.000000 0.000000
		CHANNELS 3 Zrotation Yrotation Xrotation
		JOINT LeftUpLeg
		{
			OFFSET 8.479694 -4.795517 -0.379053
			CHANNELS 3 Zrotation Yrotation Xrotation
			JOINT LeftLeg
			{
				OFFSET 0.485052 -32.551468 0.112863
				CHANNELS 3 Zrotation Yrotation Xrotation
				JOINT LeftFoot
				{
					OFFSET 0.438033 -32.635670 -3.012641
					CHANNELS 3 Zrotation Yrotation Xrotation
					JOINT LeftToeBase
					{
						OFFSET 0.970169 -13.225353 11.864223
						CHANNELS 3 Zrotation Yrotation Xrotation
						End Site
						{
							OFFSET 0.000000 0.000000 0.000000
						}
					}
				}
			}
		}
	}
	JOINT RightUpLeg_virtual
	{
		OFFSET 0.000000 0.000000 0.000000
		CHANNELS 3 Zrotation Yrotation Xrotation
		JOINT RightUpLeg
		{
			OFFSET -8.479694 -4.795517 -0.379053
			CHANNELS 3 Zrotation Yrotation Xrotation
			JOINT RightLeg
			{
				OFFSET -0.484100 -32.551483 0.112903
				CHANNELS 3 Zrotation Yrotation Xrotation
				JOINT RightFoot
				{
					OFFSET -0.438985 -32.635651 -3.012681
					CHANNELS 3 Zrotation Yrotation Xrotation
					JOINT RightToeBase
					{
						OFFSET -0.970169 -13.225354 11.864223
						CHANNELS 3 Zrotation Yrotation Xrotation
						End Site
						{
							OFFSET 0.000000 0.000000 0.000000
						}
					}
				}
			}
		}
	}
	JOINT Spine_virtual
	{
		OFFSET 0.000000 0.000000 0.000000
		CHANNELS 3 Zrotation Yrotation Xrotation
		JOINT Spine
		{
			OFFSET 0.000000 7.722015 1.166203
			CHANNELS 3 Zrotation Yrotation Xrotation
			JOINT Spine1
			{
				OFFSET 0.000000 12.024086 0.248766
				CHANNELS 3 Zrotation Yrotation Xrotation
				JOINT Spine2
				{
					OFFSET -0.000000 11.503036 -0.491240
					CHANNELS 3 Zrotation Yrotation Xrotation
					JOINT Neck_virtual
					{
						OFFSET 0.000000 0.000000 0.000000
						CHANNELS 3 Zrotation Yrotation Xrotation
						JOINT Neck
						{
							OFFSET 0.000000 18.430687 -3.123054
							CHANNELS 3 Zrotation Yrotation Xrotation
							JOINT Head
							{
								OFFSET -0.000000 9.051071 1.034021
								CHANNELS 3 Zrotation Yrotation Xrotation
								End Site
								{
									OFFSET 0.000000 0.000000 0.000000
								}
							}
						}
					}
					JOINT LeftShoulder_virtual
					{
						OFFSET 0.000000 0.000000 0.000000
						CHANNELS 3 Zrotation Yrotation Xrotation
						JOINT LeftShoulder
						{
							OFFSET 6.197824 13.665230 -4.064723
							CHANNELS 3 Zrotation Yrotation Xrotation
							JOINT LeftArm
							{
								OFFSET 7.778132 -0.187073 -1.709282
								CHANNELS 3 Zrotation Yrotation Xrotation
								JOINT LeftForeArm
								{
									OFFSET 21.954697 0.000000 -2.041093
									CHANNELS 3 Zrotation Yrotation Xrotation
									JOINT LeftHand
									{
										OFFSET 22.992908 0.000000 -0.870901
										CHANNELS 3 Zrotation Yrotation Xrotation
										End Site
										{
											OFFSET 0.000000 0.000000 0.000000
										}
									}
								}
							}
						}
					}
					JOINT RightShoulder_virtual
					{
						OFFSET 0.000000 0.000000 0.000000
						CHANNELS 3 Zrotation Yrotation Xrotation
						JOINT RightShoulder
						{
							OFFSET -6.197824 13.665230 -4.064723
							CHANNELS 3 Zrotation Yrotation Xrotation
							JOINT RightArm
							{
								OFFSET -7.778132 -0.187073 -1.709282
								CHANNELS 3 Zrotation Yrotation Xrotation
								JOINT RightForeArm
								{
									OFFSET -21.954697 0.000000 -2.041093
									CHANNELS 3 Zrotation Yrotation Xrotation
									JOINT RightHand
									{
										OFFSET -22.992908 0.000000 -0.870901
										CHANNELS 3 Zrotation Yrotation Xrotation
										End Site
										{
											OFFSET 0.000000 0.000000 0.000000
										}
									}
								}
							}
						}
					}
				}
			}
		}
	}
}
MOTION
Frames: 7
Frame Time: 0.033333
-4.649629 52.249786 11.497463 179.934517 14.631560 -179.943547 8.224049 0.249198 6.994924 -0.311022 -1.718293 -86.257776 7.816758 -5.366945 115.009403 -14.836534 -14.205554 -22.730578 0.000000 0.000000 0.000000 7.017506 3.167410 8.767348 -15.870902 -3.430936 -46.585978 -1.382861 -0.773498 124.999729 2.954526 27.667887 -18.436851 0.000000 0.000000 0.000000 14.379778 3.974320 1.730463 3.539740 1.419598 6.186629 -0.126837 -4.585340 6.882354 0.025338 -0.019492 0.033293 -0.014504 -3.762746 10.061047 -0.798656 -7.352256 -4.907338 0.000000 0.000000 0.000000 1.964168 -3.219065 6.034747 2.811304 -1.055135 -0.880585 -5.213785 -47.630594 -47.803555 -165.801203 -73.286577 -172.329894 0.000000 0.000000 0.000000 -3.047942 -1.119897 5.291651 31.793496 15.931244 -0.777357 10.873843 38.681680 -40.981227 -179.855642 54.801774 169.566768 0.000000 0.000000 0.000000 
-3.979030 52.332809 12.627954 179.862787 13.562881 179.908180 8.682513 0.287066 7.094209 0.336713 -1.913262 -86.724688 7.299149 -5.124262 113.448021 -15.959143 -15.042406 -21.325191 0.000000 0.000000 0.000000 7.241743 3.828948 9.192611 -15.715980 -4.512790 -48.380211 0.941205 -1.067340 125.326171 5.243776 31.311418 -17.284723 0.000000 0.000000 0.000000 14.138548 4.371139 2.888443 3.128803 0.720836 6.606883 -0.160491 -4.430728 7.065968 0.001557 -0.027844 -0.007248 0.056191 -3.455408 10.292654 -0.891980 -7.548517 -5.056576 0.000000 0.000000 0.000000 2.097506 -3.053009 6.253936 2.906876 -1.095351 -1.099032 -5.973638 -49.128676 -47.538851 -167.539541 -73.098337 -170.245006 0.000000 0.000000 0.000000 -3.019597 -0.915073 5.458373 30.876256 15.452700 -1.508279 8.477876 38.445113 -43.357300 -179.795140 55.107049 170.121038 0.000000 0.000000 0.000000 
-3.163055 52.435852 13.477537 179.750252 12.703129 179.722863 9.118070 0.594754 7.378873 1.200686 -2.395311 -87.143255 7.134796 -4.953004 112.028401 -16.514656 -15.449341 -20.538865 0.000000 0.000000 0.000000 7.483737 4.203786 9.622193 -15.194656 -5.632530 -49.950034 1.465589 -1.184377 125.871876 5.831866 32.782265 -16.167401 0.000000 0.000000 0.000000 13.745144 4.755812 3.838938 2.683413 0.127828 6.968139 -0.113418 -4.251663 7.322075 0.056584 -0.000665 -0.001680 0.006205 -3.527945 10.372978 -1.058238 -7.606961 -5.205222 0.000000 0.000000 0.000000 2.151167 -2.969342 6.320185 2.944864 -1.194725 -1.343419 -6.727741 -50.205172 -46.908168 -168.764480 -72.885420 -168.693064 0.000000 0.000000 0.000000 -3.067863 -0.763175 5.517959 30.061312 14.959199 -2.270155 6.856681 38.342421 -44.732207 -179.813309 55.361596 170.532639 0.000000 0.000000 0.000000 
-2.240415 52.539238 14.099390 179.644944 11.999272 179.655531 9.363278 1.168552 7.816630 1.973913 -2.660871 -87.532125 7.094215 -4.773032 110.792041 -16.650089 -15.580905 -20.196793 0.000000 0.000000 0.000000 7.725769 4.399259 10.082776 -14.377577 -6.681861 -51.508704 1.178218 -1.195998 126.341124 5.748362 33.163352 -15.210956 0.000000 0.000000 0.000000 13.301779 5.206314 4.602408 2.196329 -0.335024 7.240246 -0.129322 -4.078717 7.497263 0.008720 -0.001324 -0.055881 0.150403 -3.085188 10.563727 -1.073998 -7.791072 -5.302260 0.000000 0.000000 0.000000 2.344982 -2.751694 6.452155 3.051605 -1.295864 -1.487249 -7.421124 -50.883717 -46.256152 -170.002917 -72.838032 -167.190135 0.000000 0.000000 0.000000 -3.013519 -0.479979 5.512880 29.399252 14.420652 -2.714092 5.488728 38.245518 -45.443291 -179.576479 55.716568 171.136906 0.000000 0.000000 0.000000 
-1.227396 52.614357 14.548067 179.504598 11.329983 179.690802 9.510509 1.536387 8.471123 2.661775 -2.808756 -87.973451 7.071073 -4.636653 109.700939 -16.490954 -15.431207 -20.100536 0.000000 0.000000 0.000000 8.086610 4.233969 10.722854 -13.281299 -7.715937 -53.095182 -0.290457 -1.169412 126.831695 4.836924 32.350935 -14.681346 0.000000 0.000000 0.000000 12.738003 5.518353 5.327977 1.704741 -0.732356 7.346062 -0.113206 -3.948744 7.663702 0.051933 -0.018348 -0.038900 0.203011 -2.938351 10.632328 -1.081451 -7.950187 -5.396481 0.000000 0.000000 0.000000 2.421465 -2.554389 6.515485 3.050078 -1.401391 -1.594353 -8.090138 -51.238870 -45.629847 -171.050531 -72.921791 -165.979170 0.000000 0.000000 0.000000 -3.039970 -0.341126 5.574312 28.899398 14.220491 -3.031405 4.674670 38.341253 -45.732474 -179.840862 56.137390 171.178515 0.000000 0.000000 0.000000 
-0.178264 52.652821 14.888543 179.305443 10.689842 179.590112 9.665201 1.828196 9.288703 3.278522 -2.806318 -88.541586 7.088314 -4.629662 108.614980 -16.018262 -14.876162 -20.258064 0.000000 0.000000 0.000000 8.351281 4.238524 11.622357 -12.207695 -8.553894 -54.515968 -1.301936 -1.204621 127.242791 3.573050 31.031844 -14.610038 0.000000 0.000000 0.000000 12.177277 5.678152 6.204429 1.201318 -1.010329 7.410923 -0.125531 -3.820814 7.789877 0.119245 -0.049672 -0.056193 0.193481 -2.826517 10.651901 -1.084395 -8.067423 -5.463513 0.000000 0.000000 0.000000 2.469498 -2.377659 6.538787 3.007819 -1.502429 -1.627123 -8.652664 -51.341084 -45.175052 -172.037972 -73.076563 -164.902664 0.000000 0.000000 0.000000 -3.071732 -0.151199 5.554789 28.558175 13.955935 -3.232359 3.991692 38.482614 -45.876670 -179.890053 56.534285 171.403993 0.000000 0.000000 0.000000 
0.833615 52.687504 15.193631 179.052699 10.297660 179.466335 9.862218 2.168952 10.219735 3.630607 -2.486340 -89.103970 7.140160 -4.667294 107.615388 -15.488316 -14.111097 -20.604413 0.000000 0.000000 0.000000 8.711537 4.245547 12.540852 -11.013620 -9.334293 -55.785071 -2.045887 -1.441092 127.580079 2.594195 29.919630 -14.793223 0.000000 0.000000 0.000000 11.605749 5.825552 7.214250 0.662281 -1.161923 7.392549 -0.138991 -3.618250 7.867719 0.174012 0.060726 -0.089961 0.213337 -2.650611 10.668140 -1.112873 -8.228603 -5.508133 0.000000 0.000000 0.000000 2.531198 -2.317162 6.538864 2.934665 -1.685685 -1.649377 -9.184940 -51.299761 -44.817635 -172.790208 -73.111540 -164.142587 0.000000 0.000000 0.000000 -3.119391 -0.142279 5.520348 28.223957 13.627621 -3.584164 3.520269 38.504075 -46.017126 179.965540 57.088213 171.510736 0.000000 0.000000 0.000000 
